<?xml version="1.0" encoding="UTF-8"?>
<svg version="1.1" xmlns="http://www.w3.org/2000/svg" width="91" height="84">
<path d="M0 0 C30.03 0 60.06 0 91 0 C91 27.72 91 55.44 91 84 C60.97 84 30.94 84 0 84 C0 56.28 0 28.56 0 0 Z " fill="#EFF3F8" transform="translate(0,0)"/>
<path d="M0 0 C6.27 0 12.54 0 19 0 C18.67 1.32 18.34 2.64 18 4 C17.25575721 10.49077319 18.11397242 15.65369497 22 21 C25.22483167 23.93166515 27.69940347 25.23231887 32 25.4375 C35.91012583 25.21363783 38.6982817 24.17613252 42 22 C44.34325664 19.44860147 44.34325664 19.44860147 46 17 C43.03 17 40.06 17 37 17 C37 14.36 37 11.72 37 9 C43.27 9 49.54 9 56 9 C55.67 12.3 55.34 15.6 55 19 C54.34 19 53.68 19 53 19 C52.835 19.845625 52.67 20.69125 52.5 21.5625 C50.14593967 26.95722158 45.85273664 30.62171151 40.56640625 33.17578125 C35.28858776 34.87078841 29.75018783 34.96106408 24.49609375 33.125 C17.02633427 29.28268717 12.11063569 23.84351897 9.45703125 15.8671875 C8.8849811 13.53009371 8.77567604 11.39278893 9 9 C8.071875 8.773125 7.14375 8.54625 6.1875 8.3125 C2.47057365 6.78200092 1.62092604 5.60205786 0 2 C0 1.34 0 0.68 0 0 Z " fill="#3963E2" transform="translate(21,35)"/>
<path d="M0 0 C6.54673193 -0.1527463 13.09300069 -0.25746348 19.64111328 -0.32958984 C21.86622286 -0.35967201 24.09121474 -0.40054898 26.31591797 -0.45263672 C29.52340803 -0.52582777 32.72932417 -0.55954294 35.9375 -0.5859375 C36.92427734 -0.61690521 37.91105469 -0.64787292 38.92773438 -0.67977905 C46.94259346 -0.68364159 50.99191609 2.02606519 56.55810547 7.54483032 C59.26890599 10.5273706 60.64477291 12.97409294 61 17 C55.8968217 17.61590083 55.8968217 17.61590083 53 17 C51.10614574 15.36229898 49.76458687 13.67183524 48.32421875 11.62890625 C46.99945984 9.70168271 46.99945984 9.70168271 44 9 C41.11067893 8.90524408 38.2410571 8.86298629 35.3515625 8.859375 C33.60675775 8.84104935 31.86196572 8.82147926 30.1171875 8.80078125 C27.36957303 8.77180212 24.6227773 8.74999961 21.875 8.74951172 C19.22061729 8.74617467 16.56811781 8.71161661 13.9140625 8.671875 C12.6872728 8.68247955 12.6872728 8.68247955 11.43569946 8.69329834 C7.14300644 8.60187255 5.45969152 8.35403809 1.94287109 5.64550781 C0 3 0 3 0 0 Z " fill="#3963E2" transform="translate(14,19)"/>
</svg>
