<?xml version="1.0" encoding="UTF-8"?>
<svg version="1.1" xmlns="http://www.w3.org/2000/svg" width="83" height="83">
<path d="M0 0 C11.23597718 6.74158631 19.26910554 15.6052438 22.578125 28.546875 C24.36015483 42.04664798 22.32153899 53.26184736 14.265625 64.421875 C7.65793704 72.27736669 -1.24805863 78.46789503 -11.62646484 79.83789062 C-25.44310899 80.96531512 -36.63904028 78.516958 -47.4609375 69.4140625 C-55.70078316 61.56815368 -60.50321185 51.94631407 -61.01586914 40.53198242 C-61.17903955 27.45393802 -57.56023648 17.14406634 -48.421875 7.546875 C-35.61319562 -4.59641844 -15.91401702 -7.91255595 0 0 Z " fill="#EDF2F8" transform="translate(60.421875,3.453125)"/>
<path d="M0 0 C6.27 0 12.54 0 19 0 C18.67 1.32 18.34 2.64 18 4 C17.62452937 8.8450153 17.34884763 13.38925467 19.1875 17.9375 C22.67809058 21.90955135 25.897876 24.83829815 31.25 25.25 C36.71152006 24.88589866 39.75106337 23.4132704 43.375 19.3125 C43.91125 18.549375 44.4475 17.78625 45 17 C42.03 17 39.06 17 36 17 C36 14.36 36 11.72 36 9 C42.27 9 48.54 9 55 9 C54.65110581 17.37346056 53.33698145 22.97843538 47.06640625 28.79296875 C40.93169816 33.67522226 35.81228519 34.55268557 28 34 C22.00682528 32.94856584 17.90678907 30.6047762 14 26 C12.38078841 23.08933265 11.15957532 20.11713796 10 17 C9.67 16.34 9.34 15.68 9 15 C8.95977609 12.6670134 8.95679753 10.33293334 9 8 C7.88625 8.12375 7.88625 8.12375 6.75 8.25 C4 8 4 8 1.6875 6.25 C0 4 0 4 0 0 Z " fill="#2E67EA" transform="translate(17,35)"/>
<path d="M0 0 C6.40440521 -0.1273144 12.80848125 -0.21456565 19.21386719 -0.2746582 C21.39042354 -0.29972256 23.56689639 -0.33378331 25.74316406 -0.37719727 C28.88106954 -0.43820412 32.01785737 -0.46629122 35.15625 -0.48828125 C36.60360535 -0.52699089 36.60360535 -0.52699089 38.0802002 -0.56648254 C46.31081961 -0.56985988 50.84503218 2.18796346 56.875 7.5625 C59.70562696 10.80939563 61 12.66986261 61 17 C55.75898802 17.436751 55.75898802 17.436751 53 17 C50.875 14.6875 50.875 14.6875 49 12 C44.01953789 8.81080233 39.98472368 8.59644151 34.27734375 8.6640625 C32.58788673 8.65155665 30.89843358 8.63851984 29.20898438 8.625 C26.56683755 8.62106421 23.92507009 8.62506859 21.28295898 8.63964844 C18.71801651 8.64822445 16.15464756 8.62653931 13.58984375 8.6015625 C12.80326889 8.61490631 12.01669403 8.62825012 11.20628357 8.64199829 C6.98694258 8.58528818 5.42330235 8.32757524 1.96313477 5.64990234 C0 3 0 3 0 0 Z " fill="#2C66EA" transform="translate(10,19)"/>
</svg>
